<svg width="80" height="80" viewBox="0 0 80 80" fill="none" xmlns="http://www.w3.org/2000/svg">
<g clip-path="url(#clip0_49_5131)">
<rect width="80" height="80" rx="40" fill="#F5F0E3"/>
<path d="M51.9817 42.714H39.001V40.4904H51.9817C54.7862 40.4904 57.0698 40.0297 58.8327 39.1082C60.5955 38.1667 61.8773 36.9147 62.6791 35.3522C63.5001 33.7697 63.9105 32.0269 63.9105 30.1239C63.9105 28.1607 63.5001 26.3679 62.6791 24.7452C61.8773 23.1226 60.5955 21.8306 58.8327 20.869C57.0698 19.8875 54.7862 19.3967 51.9817 19.3967H40.2629V60.9231H37.8291V17.1731H51.9817C55.1268 17.1731 57.761 17.714 59.8844 18.7957C62.0281 19.8775 63.6404 21.3899 64.7222 23.333C65.8041 25.256 66.345 27.4996 66.345 30.0637C66.345 32.6679 65.8041 34.9215 64.7222 36.8245C63.6404 38.7076 62.0379 40.1599 59.9144 41.1815C57.791 42.2032 55.1468 42.714 51.9817 42.714Z" fill="#1A1A1A"/>
<path d="M52.5397 17.1731V60.9231H50.1058L23.0626 21.3498V60.9231H20.5986V17.1731H23.0626L50.1058 56.6863V17.1731H52.5397Z" fill="#1A1A1A"/>
<path d="M39.9997 78.7692C61.4114 78.7692 78.7689 61.4116 78.7689 39.9999C78.7689 18.5883 61.4114 1.23071 39.9997 1.23071C18.588 1.23071 1.23047 18.5883 1.23047 39.9999C1.23047 61.4116 18.588 78.7692 39.9997 78.7692Z" stroke="#1A1A1A" stroke-width="4"/>
</g>
<rect x="0.5" y="0.5" width="79" height="79" rx="39.5" stroke="#F5F0E3"/>
<defs>
<clipPath id="clip0_49_5131">
<rect width="80" height="80" rx="40" fill="white"/>
</clipPath>
</defs>
</svg>
