<svg width="29" height="19" viewBox="0 0 29 19" fill="none" xmlns="http://www.w3.org/2000/svg">
<path d="M0 9.48363C0.0386667 9.56469 0.087 9.67614 0.145 9.81799C0.203 9.95984 0.348 10.2537 0.58 10.6995C0.812 11.1453 1.06333 11.5708 1.334 11.9761C1.60467 12.3814 1.98167 12.8677 2.465 13.4351C2.94833 14.0025 3.451 14.5395 3.973 15.0461C4.495 15.5528 5.14267 16.0492 5.916 16.5356C6.68933 17.0219 7.482 17.4475 8.294 17.8122C9.106 18.177 10.0533 18.4607 11.136 18.6633C12.2187 18.8659 13.34 18.9774 14.5 18.9977C15.66 19.0179 16.7813 18.9065 17.864 18.6633C18.9467 18.4201 19.9037 18.1263 20.735 17.7818C21.5663 17.4373 22.3493 17.0219 23.084 16.5356C23.8187 16.0492 24.4663 15.5426 25.027 15.0158C25.5877 14.4889 26.0903 13.9721 26.535 13.4655C26.9797 12.9589 27.3567 12.4523 27.666 11.9457C27.9753 11.4391 28.2267 11.0237 28.42 10.6995C28.6133 10.3753 28.7583 10.0814 28.855 9.81799L29 9.48363C28.9807 9.40258 28.9323 9.29112 28.855 9.14927C28.7777 9.00742 28.6327 8.72373 28.42 8.29818C28.2073 7.87263 27.956 7.44708 27.666 7.02154C27.376 6.59599 26.999 6.09952 26.535 5.53212C26.071 4.96472 25.5683 4.43785 25.027 3.95151C24.4857 3.46517 23.838 2.9687 23.084 2.4621C22.33 1.95549 21.5373 1.52995 20.706 1.18545C19.8747 0.840963 18.9273 0.557265 17.864 0.334359C16.8007 0.111453 15.6793 0 14.5 0C13.3207 0 12.1993 0.111453 11.136 0.334359C10.0727 0.557265 9.11567 0.840963 8.265 1.18545C7.41433 1.52995 6.63133 1.95549 5.916 2.4621C5.20067 2.9687 4.553 3.46517 3.973 3.95151C3.393 4.43785 2.89033 4.96472 2.465 5.53212C2.03967 6.09952 1.66267 6.59599 1.334 7.02154C1.00533 7.44708 0.754 7.87263 0.58 8.29818C0.406 8.72373 0.261 9.01756 0.145 9.17967L0 9.48363ZM9.077 9.48363C9.077 7.92329 9.599 6.58586 10.643 5.47133C11.687 4.3568 12.9727 3.79953 14.5 3.79953C16.0273 3.79953 17.313 4.3568 18.357 5.47133C19.401 6.58586 19.9327 7.92329 19.952 9.48363C19.9713 11.044 19.4397 12.3915 18.357 13.5263C17.2743 14.6611 15.9887 15.2184 14.5 15.1981C13.0113 15.1779 11.7257 14.6206 10.643 13.5263C9.56033 12.4321 9.03833 11.0845 9.077 9.48363ZM10.875 9.48363C10.875 10.5374 11.2327 11.4391 11.948 12.1889C12.6633 12.9387 13.514 13.3034 14.5 13.2832C15.486 13.2629 16.3367 12.8981 17.052 12.1889C17.7673 11.4797 18.125 10.5779 18.125 9.48363C18.125 8.38937 17.7673 7.49774 17.052 6.80876C16.3367 6.11978 15.486 5.74489 14.5 5.6841C13.514 5.62331 12.6633 5.9982 11.948 6.80876L14.5 9.48363H10.875Z" fill="#F5F0E3"/>
</svg>
