<svg width="16" height="19" viewBox="0 0 16 19" fill="none" xmlns="http://www.w3.org/2000/svg">
<path fill-rule="evenodd" clip-rule="evenodd" d="M2.69677 1.46154C2.01978 1.46154 1.47097 2.00684 1.47097 2.67948V16.3205C1.47097 16.9931 2.01978 17.5384 2.69677 17.5384H12.5032C13.1802 17.5384 13.729 16.9931 13.729 16.3205V6.78346C13.729 6.46638 13.6046 6.1618 13.3821 5.93446L9.36643 1.83048C9.13558 1.59461 8.81857 1.46154 8.48749 1.46154H2.69677ZM0 2.67948C0 1.19965 1.20738 0 2.69677 0H8.48749C9.21595 0 9.91335 0.292761 10.4211 0.81167L14.4368 4.91565C14.9262 5.41581 15.2 6.08589 15.2 6.78346V16.3205C15.2 17.8003 13.9926 19 12.5032 19H2.69677C1.20738 19 0 17.8003 0 16.3205V2.67948Z" fill="#F5F0E3"/>
<path fill-rule="evenodd" clip-rule="evenodd" d="M3.92285 12.4231C3.92285 12.8268 4.25214 13.154 4.65834 13.154H10.5422C10.9484 13.154 11.2777 12.8268 11.2777 12.4231C11.2777 12.0196 10.9484 11.6924 10.5422 11.6924H4.65834C4.25214 11.6924 3.92285 12.0196 3.92285 12.4231Z" fill="#F5F0E3"/>
<path fill-rule="evenodd" clip-rule="evenodd" d="M3.92285 8.52576C3.92285 8.92932 4.25214 9.2565 4.65834 9.2565H7.60027C8.00649 9.2565 8.33576 8.92932 8.33576 8.52576C8.33576 8.1221 8.00649 7.79492 7.60027 7.79492H4.65834C4.25214 7.79492 3.92285 8.1221 3.92285 8.52576Z" fill="#F5F0E3"/>
</svg>
