<svg width="19" height="19" viewBox="0 0 19 19" fill="none" xmlns="http://www.w3.org/2000/svg">
<path d="M9.5 0C14.7467 0 19 4.2533 19 9.5C19 14.7467 14.7467 19 9.5 19C4.2533 19 0 14.7467 0 9.5C0 4.2533 4.2533 0 9.5 0ZM9.5 1.42478C5.04018 1.42478 1.42478 5.04018 1.42478 9.5C1.42478 13.9598 5.04018 17.5752 9.5 17.5752C13.9598 17.5752 17.5752 13.9598 17.5752 9.5C17.5752 5.04018 13.9598 1.42478 9.5 1.42478ZM6.13917 12.1437C6.94573 13.1674 8.172 13.7758 9.49999 13.7758C10.8262 13.7758 12.051 13.1691 12.8577 12.1477C13.1015 11.839 13.5495 11.7863 13.8583 12.0302C14.167 12.2741 14.2196 12.722 13.9758 13.0308C12.9017 14.3907 11.2668 15.2006 9.49999 15.2006C7.73076 15.2006 6.09394 14.3885 5.02003 13.0255C4.77654 12.7165 4.82968 12.2686 5.13872 12.0251C5.44776 11.7816 5.89568 11.8347 6.13917 12.1437ZM6.65087 6.41359C7.30623 6.41359 7.83751 6.94487 7.83751 7.60023C7.83751 8.25559 7.30623 8.78687 6.65087 8.78687C5.9955 8.78687 5.46423 8.25559 5.46423 7.60023C5.46423 6.94487 5.9955 6.41359 6.65087 6.41359ZM12.35 6.41359C13.0053 6.41359 13.5366 6.94487 13.5366 7.60023C13.5366 8.25559 13.0053 8.78687 12.35 8.78687C11.6946 8.78687 11.1633 8.25559 11.1633 7.60023C11.1633 6.94487 11.6946 6.41359 12.35 6.41359Z" fill="#F5F0E3"/>
</svg>
