<svg width="60" height="60" viewBox="0 0 60 60" fill="none" xmlns="http://www.w3.org/2000/svg">
<circle cx="30" cy="30" r="30" fill="#F5F0E3"/>
<path fill-rule="evenodd" clip-rule="evenodd" d="M24.435 42C35.7555 42 41.9475 32.7652 41.9475 24.7578C41.9475 24.495 41.9475 24.2341 41.9295 23.9741C43.134 23.1176 44.1735 22.054 45 20.8371C43.878 21.3274 42.6855 21.649 41.466 21.7908C42.75 21.0331 43.7115 19.8429 44.172 18.4384C42.963 19.1443 41.6415 19.6426 40.263 19.9099C37.932 17.4701 34.0335 17.3519 31.554 19.6469C29.9565 21.1267 29.277 23.333 29.7735 25.4375C24.825 25.1924 20.214 22.8915 17.088 19.1064C15.4545 21.8754 16.29 25.4165 18.9945 27.1946C18.015 27.1666 17.0565 26.9069 16.2 26.4373V26.5142C16.2015 29.3985 18.267 31.882 21.138 32.4535C20.232 32.6972 19.281 32.7325 18.36 32.5568C19.1655 35.026 21.477 36.7173 24.1095 36.766C21.93 38.4526 19.2375 39.3684 16.4655 39.3654C15.9765 39.364 15.4875 39.3359 15 39.2783C17.8155 41.0564 21.09 42 24.435 41.9956" fill="#1A1A1A"/>
</svg>
