<svg width="60" height="60" viewBox="0 0 60 60" fill="none" xmlns="http://www.w3.org/2000/svg">
<circle cx="30" cy="30" r="30" fill="#F5F0E3"/>
<path fill-rule="evenodd" clip-rule="evenodd" d="M23.4483 42V25.8064H18.3041V41.9999H23.4483V42ZM20.8768 23.5963C22.6701 23.5963 23.7872 22.3518 23.7872 20.7979C23.7533 19.2094 22.6701 18 20.9104 18C19.1504 18 18 19.2094 18 20.7979C18 22.3518 19.1165 23.5963 20.8429 23.5963L20.8768 23.5963ZM26.2955 42C26.2955 42 26.363 27.3258 26.2955 25.8065H31.4405V28.1549H31.4064C32.0829 27.0498 33.3017 25.4262 36.0767 25.4262C39.4623 25.4262 42 27.7407 42 32.7147V42H36.8558V33.3369C36.8558 31.1601 36.1115 29.6748 34.2493 29.6748C32.8284 29.6748 31.9816 30.6762 31.6097 31.6441C31.4736 31.9887 31.4405 32.4726 31.4405 32.9566V42H26.2955Z" fill="#1A1A1A"/>
</svg>
