<svg width="60" height="60" viewBox="0 0 60 60" fill="none" xmlns="http://www.w3.org/2000/svg">
<circle cx="30" cy="30" r="30" fill="#F5F0E3"/>
<path fill-rule="evenodd" clip-rule="evenodd" d="M23.8045 15.1841C21.3627 15.2943 19.2462 15.8913 17.5372 17.593C15.8223 19.3037 15.2327 21.4285 15.1223 23.845C15.0536 25.3532 14.6521 36.7474 15.8163 39.7355C16.6014 41.7514 18.1477 43.3014 20.182 44.089C21.1313 44.4583 22.2149 44.7082 23.8045 44.7812C37.0957 45.3827 42.0226 45.0552 44.1003 39.7355C44.4689 38.7886 44.7227 37.7059 44.7928 36.1203C45.4003 22.795 44.6943 19.9067 42.3779 17.593C40.5405 15.7602 38.3793 14.5126 23.8045 15.1841ZM23.9268 42.1012C22.4716 42.0357 21.682 41.7932 21.1552 41.5893C19.8298 41.0741 18.8343 40.0827 18.3223 38.7651C17.4357 36.4946 17.7298 25.7107 17.8089 23.9658C17.8865 22.2566 18.2328 20.6945 19.4387 19.4885C20.9313 17.9997 22.8597 17.27 35.9897 17.8626C37.7032 17.94 39.2689 18.2855 40.4778 19.4885C41.9704 20.9774 42.7107 22.9206 42.1077 36.0002C42.042 37.4518 41.7988 38.2395 41.5943 38.7651C40.2435 42.2266 37.136 42.7072 23.9268 42.1012ZM36.1345 22.0344C36.1345 23.02 36.936 23.8215 37.9256 23.8215C38.9151 23.8215 39.7181 23.02 39.7181 22.0344C39.7181 21.0488 38.9151 20.248 37.9256 20.248C36.936 20.248 36.1345 21.0488 36.1345 22.0344ZM22.294 29.9819C22.294 34.2043 25.7254 37.6276 29.9583 37.6276C34.1912 37.6276 37.6226 34.2043 37.6226 29.9819C37.6226 25.7595 34.1912 22.3384 29.9583 22.3384C25.7254 22.3384 22.294 25.7595 22.294 29.9819ZM24.9836 29.9819C24.9836 27.2424 27.2105 25.0198 29.9583 25.0198C32.7061 25.0198 34.933 27.2424 34.933 29.9819C34.933 32.7229 32.7061 34.9462 29.9583 34.9462C27.2105 34.9462 24.9836 32.7229 24.9836 29.9819Z" fill="#1A1A1A"/>
</svg>
